# Blender v2.79 (sub 0) OBJ File: ''
# www.blender.org
mtllib Pille_02_livre_HD.mtl
o Cube.003_Cube.008
v -1.047606 0.829186 -0.095217
v -1.047606 1.160583 -0.095217
v 0.148637 0.829186 -1.041370
v 0.148637 1.160583 -1.041370
v -0.148637 0.829186 1.041370
v -0.148637 1.160583 1.041370
v 1.047606 0.829186 0.095217
v 1.047606 1.160583 0.095217
v 0.286094 0.829186 -0.867580
v 0.286094 1.160583 -0.867580
v -0.910149 0.829186 0.078573
v -0.910149 1.160583 0.078573
v -1.047606 0.904453 -0.095217
v -1.047606 1.085316 -0.095217
v 0.148637 1.085316 -1.041370
v 0.148637 0.904453 -1.041370
v 1.047606 1.085316 0.095217
v 1.047606 0.904453 0.095217
v -0.148637 1.085316 1.041370
v -0.148637 0.904453 1.041370
v -0.910149 1.085316 0.078573
v -0.910149 0.904453 0.078573
v 0.286094 1.085316 -0.867580
v 0.286094 0.904453 -0.867580
v 0.970360 1.080181 0.067363
v 0.970360 0.909588 0.067363
v -0.157950 1.080181 0.959785
v -0.157950 0.909588 0.959785
v -0.876217 1.080181 0.051664
v -0.876217 0.909588 0.051664
v 0.252093 1.080181 -0.840758
v 0.252093 0.909588 -0.840758
vt 0.080227 0.657233
vt 0.009361 0.657233
vt 0.009361 0.342767
vt 0.080227 0.342767
vt 0.080227 0.275816
vt 0.009361 0.275816
vt 0.009361 0.009434
vt 0.080227 0.009434
vt 0.901051 0.990566
vt 0.830185 0.990566
vt 0.830184 0.676101
vt 0.901051 0.676101
vt 0.604418 0.080855
vt 0.604418 0.009434
vt 0.652128 0.009434
vt 0.652128 0.080855
vt 0.387714 0.342767
vt 0.651469 0.342767
vt 0.651469 0.657233
vt 0.387714 0.657233
vt 0.717800 0.657233
vt 0.670191 0.657233
vt 0.670190 0.342767
vt 0.717800 0.342767
vt 0.981555 0.657233
vt 0.981555 0.342767
vt 0.340105 0.342767
vt 0.340105 0.657233
vt 0.340105 0.080855
vt 0.340105 0.009434
vt 0.080227 0.323899
vt 0.009361 0.323899
vt 0.321384 0.323899
vt 0.250517 0.323899
vt 0.250517 0.275816
vt 0.321384 0.275816
vt 0.340105 0.323899
vt 0.340105 0.252478
vt 0.604418 0.252478
vt 0.604418 0.323899
vt 0.934930 0.009434
vt 0.934930 0.323899
vt 0.919626 0.314970
vt 0.919626 0.018363
vt 0.652128 0.252478
vt 0.652128 0.323899
vt 0.990639 0.990566
vt 0.919773 0.990566
vt 0.919773 0.676101
vt 0.990639 0.676101
vt 0.671175 0.009434
vt 0.670849 0.018363
vt 0.250517 0.009434
vt 0.321384 0.009434
vt 0.273116 0.990566
vt 0.009361 0.990566
vt 0.024665 0.981637
vt 0.273441 0.981637
vt 0.321384 0.657233
vt 0.250517 0.657233
vt 0.250517 0.342767
vt 0.321384 0.342767
vt 0.383934 0.791120
vt 0.400795 0.791120
vt 0.400795 0.817495
vt 0.383934 0.817495
vt 0.381968 0.822256
vt 0.365107 0.822256
vt 0.365107 0.791120
vt 0.381968 0.791120
vt 0.419621 0.817495
vt 0.402760 0.817495
vt 0.402760 0.791120
vt 0.419621 0.791120
vt 0.671175 0.323899
vt 0.670849 0.314970
vt 0.990092 0.009434
vt 0.990092 0.181057
vt 0.981233 0.176184
vt 0.981233 0.014307
vt 0.009361 0.676101
vt 0.273116 0.676101
vt 0.273442 0.685030
vt 0.024665 0.685030
vt 0.953652 0.181057
vt 0.953652 0.009434
vt 0.962511 0.014307
vt 0.962511 0.176183
vn -0.6204 0.0000 -0.7843
vn 0.7843 0.0000 -0.6204
vn 0.6204 0.0000 0.7843
vn -0.7843 0.0000 0.6204
vn 0.0000 -1.0000 0.0000
vn 0.0000 1.0000 0.0000
vn 0.0455 -0.9973 0.0576
vn 0.0924 -0.9930 -0.0731
vn -0.0924 0.9930 0.0731
vn -0.0924 -0.9930 0.0731
vn 0.6193 0.0000 0.7851
vn 0.0924 0.9930 -0.0731
vn 0.6214 0.0000 0.7835
vn 0.0455 0.9973 0.0576
usemtl Material.008
s off
f 14/1/1 2/2/1 4/3/1 15/4/1
f 23/5/2 10/6/2 8/7/2 17/8/2
f 17/9/3 8/10/3 6/11/3 19/12/3
f 21/13/4 12/14/4 2/15/4 14/16/4
f 9/17/5 7/18/5 5/19/5 11/20/5
f 10/21/6 4/22/6 2/23/6 12/24/6
f 8/25/6 10/21/6 12/24/6 6/26/6
f 3/27/5 9/17/5 11/20/5 1/28/5
f 19/29/4 6/30/4 12/14/4 21/13/4
f 15/31/2 4/32/2 10/6/2 23/5/2
f 3/33/2 16/34/2 24/35/2 9/36/2
f 16/34/2 15/31/2 23/5/2 24/35/2
f 5/37/4 20/38/4 22/39/4 11/40/4
f 17/41/7 19/42/7 27/43/7 25/44/7
f 11/40/4 22/39/4 13/45/4 1/46/4
f 22/39/4 21/13/4 14/16/4 13/45/4
f 7/47/3 18/48/3 20/49/3 5/50/3
f 23/51/8 17/41/8 25/44/8 31/52/8
f 9/36/2 24/35/2 18/53/2 7/54/2
f 22/55/9 20/56/9 28/57/9 30/58/9
f 1/59/1 13/60/1 16/61/1 3/62/1
f 13/60/1 14/1/1 15/4/1 16/61/1
f 28/63/4 27/64/4 29/65/4 30/66/4
f 26/67/3 25/68/3 27/69/3 28/70/3
f 32/71/2 31/72/2 25/73/2 26/74/2
f 19/42/10 21/75/10 29/76/10 27/43/10
f 24/77/11 23/78/11 31/79/11 32/80/11
f 18/81/12 24/82/12 32/83/12 26/84/12
f 21/85/13 22/86/13 30/87/13 29/88/13
f 20/56/14 18/81/14 26/84/14 28/57/14
o Cube.002_Cube.007
v -0.694731 0.497765 -0.789869
v -0.694731 0.829163 -0.789869
v 0.824345 0.497765 -0.653452
v 0.824345 0.829163 -0.653452
v -0.824345 0.497765 0.653452
v -0.824345 0.829163 0.653452
v 0.694731 0.497765 0.789869
v 0.694731 0.829163 0.789869
v 0.804526 0.497765 -0.432761
v 0.804526 0.829163 -0.432761
v -0.714550 0.497765 -0.569178
v -0.714550 0.829163 -0.569178
v -0.694731 0.573032 -0.789869
v -0.694731 0.753896 -0.789869
v 0.824345 0.753896 -0.653452
v 0.824345 0.573032 -0.653452
v 0.694731 0.753896 0.789869
v 0.694731 0.573032 0.789869
v -0.824345 0.753896 0.653452
v -0.824345 0.573032 0.653452
v -0.714550 0.753896 -0.569178
v -0.714550 0.573032 -0.569178
v 0.804526 0.753896 -0.432761
v 0.804526 0.573032 -0.432761
v 0.657838 0.748760 0.716509
v 0.657838 0.578167 0.716509
v -0.774972 0.748760 0.587839
v -0.774972 0.578167 0.587839
v -0.671412 0.748760 -0.565360
v -0.671412 0.578167 -0.565360
v 0.761398 0.748760 -0.436689
v 0.761398 0.578167 -0.436689
vt 0.080227 0.657233
vt 0.009361 0.657233
vt 0.009361 0.342767
vt 0.080227 0.342767
vt 0.080227 0.275816
vt 0.009361 0.275816
vt 0.009361 0.009434
vt 0.080227 0.009434
vt 0.901051 0.990566
vt 0.830185 0.990566
vt 0.830184 0.676101
vt 0.901051 0.676101
vt 0.604418 0.080855
vt 0.604418 0.009434
vt 0.652128 0.009434
vt 0.652128 0.080855
vt 0.387714 0.342767
vt 0.651469 0.342767
vt 0.651469 0.657233
vt 0.387714 0.657233
vt 0.717800 0.657233
vt 0.670191 0.657233
vt 0.670190 0.342767
vt 0.717800 0.342767
vt 0.981555 0.657233
vt 0.981555 0.342767
vt 0.340105 0.342767
vt 0.340105 0.657233
vt 0.340105 0.080855
vt 0.340105 0.009434
vt 0.080227 0.323899
vt 0.009361 0.323899
vt 0.321384 0.323899
vt 0.250517 0.323899
vt 0.250517 0.275816
vt 0.321384 0.275816
vt 0.340105 0.323899
vt 0.340105 0.252478
vt 0.604418 0.252478
vt 0.604418 0.323899
vt 0.934930 0.009434
vt 0.934930 0.323899
vt 0.919626 0.314970
vt 0.919626 0.018363
vt 0.652128 0.252478
vt 0.652128 0.323899
vt 0.990639 0.990566
vt 0.919773 0.990566
vt 0.919773 0.676101
vt 0.990639 0.676101
vt 0.671175 0.009434
vt 0.670849 0.018363
vt 0.250517 0.009434
vt 0.321384 0.009434
vt 0.273116 0.990566
vt 0.009361 0.990566
vt 0.024665 0.981637
vt 0.273441 0.981637
vt 0.321384 0.657233
vt 0.250517 0.657233
vt 0.250517 0.342767
vt 0.321384 0.342767
vt 0.383934 0.791120
vt 0.400795 0.791120
vt 0.400795 0.817495
vt 0.383934 0.817495
vt 0.381968 0.822256
vt 0.365107 0.822256
vt 0.365107 0.791120
vt 0.381968 0.791120
vt 0.419621 0.817495
vt 0.402760 0.817495
vt 0.402760 0.791120
vt 0.419621 0.791120
vt 0.671175 0.323899
vt 0.670849 0.314970
vt 0.990092 0.009434
vt 0.990092 0.181057
vt 0.981233 0.176184
vt 0.981233 0.014307
vt 0.009361 0.676101
vt 0.273116 0.676101
vt 0.273442 0.685030
vt 0.024665 0.685030
vt 0.953652 0.181057
vt 0.953652 0.009434
vt 0.962511 0.014307
vt 0.962511 0.176183
vn 0.0894 0.0000 -0.9960
vn 0.9960 0.0000 0.0894
vn -0.0894 0.0000 0.9960
vn -0.9960 0.0000 -0.0894
vn 0.0000 -1.0000 0.0000
vn 0.0000 1.0000 0.0000
vn -0.0066 -0.9973 0.0731
vn 0.1173 -0.9930 0.0105
vn -0.1173 0.9930 -0.0105
vn -0.1173 -0.9930 -0.0105
vn -0.0907 0.0000 0.9959
vn 0.1173 0.9930 0.0105
vn -0.0882 0.0000 0.9961
vn -0.0066 0.9973 0.0731
usemtl Material.007
s off
f 46/89/15 34/90/15 36/91/15 47/92/15
f 55/93/16 42/94/16 40/95/16 49/96/16
f 49/97/17 40/98/17 38/99/17 51/100/17
f 53/101/18 44/102/18 34/103/18 46/104/18
f 41/105/19 39/106/19 37/107/19 43/108/19
f 42/109/20 36/110/20 34/111/20 44/112/20
f 40/113/20 42/109/20 44/112/20 38/114/20
f 35/115/19 41/105/19 43/108/19 33/116/19
f 51/117/18 38/118/18 44/102/18 53/101/18
f 47/119/16 36/120/16 42/94/16 55/93/16
f 35/121/16 48/122/16 56/123/16 41/124/16
f 48/122/16 47/119/16 55/93/16 56/123/16
f 37/125/18 52/126/18 54/127/18 43/128/18
f 49/129/21 51/130/21 59/131/21 57/132/21
f 43/128/18 54/127/18 45/133/18 33/134/18
f 54/127/18 53/101/18 46/104/18 45/133/18
f 39/135/17 50/136/17 52/137/17 37/138/17
f 55/139/22 49/129/22 57/132/22 63/140/22
f 41/124/16 56/123/16 50/141/16 39/142/16
f 54/143/23 52/144/23 60/145/23 62/146/23
f 33/147/15 45/148/15 48/149/15 35/150/15
f 45/148/15 46/89/15 47/92/15 48/149/15
f 60/151/18 59/152/18 61/153/18 62/154/18
f 58/155/17 57/156/17 59/157/17 60/158/17
f 64/159/16 63/160/16 57/161/16 58/162/16
f 51/130/24 53/163/24 61/164/24 59/131/24
f 56/165/25 55/166/25 63/167/25 64/168/25
f 50/169/26 56/170/26 64/171/26 58/172/26
f 53/173/27 54/174/27 62/175/27 61/176/27
f 52/144/28 50/169/28 58/172/28 60/145/28
o Cube.001_Cube.006
v -1.037142 0.161467 0.175727
v -1.037142 0.492865 0.175727
v -0.122488 0.161467 -1.044768
v -0.122488 0.492865 -1.044768
v 0.122488 0.161467 1.044768
v 0.122488 0.492865 1.044768
v 1.037142 0.161467 -0.175727
v 1.037142 0.492865 -0.175727
v 0.054825 0.161467 -0.911887
v 0.054825 0.492865 -0.911887
v -0.859829 0.161467 0.308608
v -0.859829 0.492865 0.308608
v -1.037142 0.236734 0.175727
v -1.037142 0.417598 0.175727
v -0.122488 0.417598 -1.044768
v -0.122488 0.236734 -1.044768
v 1.037142 0.417598 -0.175727
v 1.037142 0.236734 -0.175727
v 0.122488 0.417598 1.044768
v 0.122488 0.236734 1.044768
v -0.859829 0.417598 0.308608
v -0.859829 0.236734 0.308608
v 0.054825 0.417598 -0.911887
v 0.054825 0.236734 -0.911887
v 0.955343 0.412462 -0.182911
v 0.955343 0.241870 -0.182911
v 0.092630 0.412462 0.968275
v 0.092630 0.241870 0.968275
v -0.833902 0.412462 0.273920
v -0.833902 0.241870 0.273920
v 0.028810 0.412462 -0.877266
v 0.028810 0.241870 -0.877266
vt 0.080227 0.657233
vt 0.009361 0.657233
vt 0.009361 0.342767
vt 0.080227 0.342767
vt 0.080227 0.275816
vt 0.009361 0.275816
vt 0.009361 0.009434
vt 0.080227 0.009434
vt 0.901051 0.990566
vt 0.830185 0.990566
vt 0.830184 0.676101
vt 0.901051 0.676101
vt 0.604418 0.080855
vt 0.604418 0.009434
vt 0.652128 0.009434
vt 0.652128 0.080855
vt 0.387714 0.342767
vt 0.651469 0.342767
vt 0.651469 0.657233
vt 0.387714 0.657233
vt 0.717800 0.657233
vt 0.670191 0.657233
vt 0.670190 0.342767
vt 0.717800 0.342767
vt 0.981555 0.657233
vt 0.981555 0.342767
vt 0.340105 0.342767
vt 0.340105 0.657233
vt 0.340105 0.080855
vt 0.340105 0.009434
vt 0.080227 0.323899
vt 0.009361 0.323899
vt 0.321384 0.323899
vt 0.250517 0.323899
vt 0.250517 0.275816
vt 0.321384 0.275816
vt 0.340105 0.323899
vt 0.340105 0.252478
vt 0.604418 0.252478
vt 0.604418 0.323899
vt 0.934930 0.009434
vt 0.934930 0.323899
vt 0.919626 0.314970
vt 0.919626 0.018363
vt 0.652128 0.252478
vt 0.652128 0.323899
vt 0.990639 0.990566
vt 0.919773 0.990566
vt 0.919773 0.676101
vt 0.990639 0.676101
vt 0.671175 0.009434
vt 0.670849 0.018363
vt 0.250517 0.009434
vt 0.321384 0.009434
vt 0.273116 0.990566
vt 0.009361 0.990566
vt 0.024665 0.981637
vt 0.273441 0.981637
vt 0.321384 0.657233
vt 0.250517 0.657233
vt 0.250517 0.342767
vt 0.321384 0.342767
vt 0.383934 0.791120
vt 0.400795 0.791120
vt 0.400795 0.817495
vt 0.383934 0.817495
vt 0.381968 0.822256
vt 0.365107 0.822256
vt 0.365107 0.791120
vt 0.381968 0.791120
vt 0.419621 0.817495
vt 0.402760 0.817495
vt 0.402760 0.791120
vt 0.419621 0.791120
vt 0.671175 0.323899
vt 0.670849 0.314970
vt 0.990092 0.009434
vt 0.990092 0.181057
vt 0.981233 0.176184
vt 0.981233 0.014307
vt 0.009361 0.676101
vt 0.273116 0.676101
vt 0.273442 0.685030
vt 0.024665 0.685030
vt 0.953652 0.181057
vt 0.953652 0.009434
vt 0.962511 0.014307
vt 0.962511 0.176183
vn -0.8002 0.0000 -0.5997
vn 0.5997 0.0000 -0.8002
vn 0.8002 0.0000 0.5997
vn -0.5997 0.0000 0.8002
vn 0.0000 -1.0000 -0.0000
vn 0.0000 1.0000 0.0000
vn 0.0587 -0.9973 0.0440
vn 0.0706 -0.9930 -0.0942
vn -0.0706 0.9930 0.0942
vn -0.0706 -0.9930 0.0942
vn 0.7995 0.0000 0.6007
vn 0.0706 0.9930 -0.0942
vn 0.8010 0.0000 0.5987
vn 0.0587 0.9973 0.0440
usemtl Material.006
s off
f 78/177/29 66/178/29 68/179/29 79/180/29
f 87/181/30 74/182/30 72/183/30 81/184/30
f 81/185/31 72/186/31 70/187/31 83/188/31
f 85/189/32 76/190/32 66/191/32 78/192/32
f 73/193/33 71/194/33 69/195/33 75/196/33
f 74/197/34 68/198/34 66/199/34 76/200/34
f 72/201/34 74/197/34 76/200/34 70/202/34
f 67/203/33 73/193/33 75/196/33 65/204/33
f 83/205/32 70/206/32 76/190/32 85/189/32
f 79/207/30 68/208/30 74/182/30 87/181/30
f 67/209/30 80/210/30 88/211/30 73/212/30
f 80/210/30 79/207/30 87/181/30 88/211/30
f 69/213/32 84/214/32 86/215/32 75/216/32
f 81/217/35 83/218/35 91/219/35 89/220/35
f 75/216/32 86/215/32 77/221/32 65/222/32
f 86/215/32 85/189/32 78/192/32 77/221/32
f 71/223/31 82/224/31 84/225/31 69/226/31
f 87/227/36 81/217/36 89/220/36 95/228/36
f 73/212/30 88/211/30 82/229/30 71/230/30
f 86/231/37 84/232/37 92/233/37 94/234/37
f 65/235/29 77/236/29 80/237/29 67/238/29
f 77/236/29 78/177/29 79/180/29 80/237/29
f 92/239/32 91/240/32 93/241/32 94/242/32
f 90/243/31 89/244/31 91/245/31 92/246/31
f 96/247/30 95/248/30 89/249/30 90/250/30
f 83/218/38 85/251/38 93/252/38 91/219/38
f 88/253/39 87/254/39 95/255/39 96/256/39
f 82/257/40 88/258/40 96/259/40 90/260/40
f 85/261/41 86/262/41 94/263/41 93/264/41
f 84/232/42 82/257/42 90/260/42 92/233/42
o Cube_Cube.001
v -0.724564 -0.165699 0.762595
v -0.724564 0.165699 0.762595
v -0.724564 -0.165699 -0.762595
v -0.724564 0.165699 -0.762595
v 0.724564 -0.165699 0.762595
v 0.724564 0.165699 0.762595
v 0.724564 -0.165699 -0.762595
v 0.724564 0.165699 -0.762595
v -0.502985 -0.165699 -0.762595
v -0.502985 0.165699 -0.762595
v -0.502985 -0.165699 0.762595
v -0.502985 0.165699 0.762595
v -0.724564 -0.090432 0.762595
v -0.724564 0.090432 0.762595
v -0.724564 0.090432 -0.762595
v -0.724564 -0.090432 -0.762595
v 0.724564 0.090432 -0.762595
v 0.724564 -0.090432 -0.762595
v 0.724564 0.090432 0.762595
v 0.724564 -0.090432 0.762595
v -0.502985 0.090432 0.762595
v -0.502985 -0.090432 0.762595
v -0.502985 0.090432 -0.762595
v -0.502985 -0.090432 -0.762595
v 0.654798 0.085296 -0.719288
v 0.654798 -0.085296 -0.719288
v 0.654798 0.085296 0.719288
v 0.654798 -0.085296 0.719288
v -0.503041 0.085296 0.719288
v -0.503041 -0.085296 0.719288
v -0.503041 0.085296 -0.719288
v -0.503041 -0.085296 -0.719288
vt 0.080227 0.657233
vt 0.009361 0.657233
vt 0.009361 0.342767
vt 0.080227 0.342767
vt 0.080227 0.275816
vt 0.009361 0.275816
vt 0.009361 0.009434
vt 0.080227 0.009434
vt 0.901051 0.990566
vt 0.830185 0.990566
vt 0.830184 0.676101
vt 0.901051 0.676101
vt 0.604418 0.080855
vt 0.604418 0.009434
vt 0.652128 0.009434
vt 0.652128 0.080855
vt 0.387714 0.342767
vt 0.651469 0.342767
vt 0.651469 0.657233
vt 0.387714 0.657233
vt 0.717800 0.657233
vt 0.670191 0.657233
vt 0.670190 0.342767
vt 0.717800 0.342767
vt 0.981555 0.657233
vt 0.981555 0.342767
vt 0.340105 0.342767
vt 0.340105 0.657233
vt 0.340105 0.080855
vt 0.340105 0.009434
vt 0.080227 0.323899
vt 0.009361 0.323899
vt 0.321384 0.323899
vt 0.250517 0.323899
vt 0.250517 0.275816
vt 0.321384 0.275816
vt 0.340105 0.323899
vt 0.340105 0.252478
vt 0.604418 0.252478
vt 0.604418 0.323899
vt 0.934930 0.009434
vt 0.934930 0.323899
vt 0.919626 0.314970
vt 0.919626 0.018363
vt 0.652128 0.252478
vt 0.652128 0.323899
vt 0.990639 0.990566
vt 0.919773 0.990566
vt 0.919773 0.676101
vt 0.990639 0.676101
vt 0.671175 0.009434
vt 0.670849 0.018363
vt 0.250517 0.009434
vt 0.321384 0.009434
vt 0.273116 0.990566
vt 0.009361 0.990566
vt 0.024665 0.981637
vt 0.273441 0.981637
vt 0.321384 0.657233
vt 0.250517 0.657233
vt 0.250517 0.342767
vt 0.321384 0.342767
vt 0.383934 0.791120
vt 0.400795 0.791120
vt 0.400795 0.817495
vt 0.383934 0.817495
vt 0.381968 0.822256
vt 0.365107 0.822256
vt 0.365107 0.791120
vt 0.381968 0.791120
vt 0.419621 0.817495
vt 0.402760 0.817495
vt 0.402760 0.791120
vt 0.419621 0.791120
vt 0.671175 0.323899
vt 0.670849 0.314970
vt 0.990092 0.009434
vt 0.990092 0.181057
vt 0.981233 0.176184
vt 0.981233 0.014307
vt 0.009361 0.676101
vt 0.273116 0.676101
vt 0.273442 0.685030
vt 0.024665 0.685030
vt 0.953652 0.181057
vt 0.953652 0.009434
vt 0.962511 0.014307
vt 0.962511 0.176183
vn -1.0000 0.0000 0.0000
vn 0.0000 0.0000 -1.0000
vn 1.0000 0.0000 0.0000
vn 0.0000 0.0000 1.0000
vn 0.0000 -1.0000 0.0000
vn 0.0000 1.0000 0.0000
vn 0.0734 -0.9973 0.0000
vn 0.0000 -0.9930 -0.1178
vn 0.0000 0.9930 0.1178
vn 0.0000 -0.9930 0.1178
vn 1.0000 0.0000 0.0013
vn 0.0000 0.9930 -0.1178
vn 1.0000 0.0000 -0.0013
vn 0.0734 0.9973 0.0000
usemtl Material.005
s off
f 110/265/43 98/266/43 100/267/43 111/268/43
f 119/269/44 106/270/44 104/271/44 113/272/44
f 113/273/45 104/274/45 102/275/45 115/276/45
f 117/277/46 108/278/46 98/279/46 110/280/46
f 105/281/47 103/282/47 101/283/47 107/284/47
f 106/285/48 100/286/48 98/287/48 108/288/48
f 104/289/48 106/285/48 108/288/48 102/290/48
f 99/291/47 105/281/47 107/284/47 97/292/47
f 115/293/46 102/294/46 108/278/46 117/277/46
f 111/295/44 100/296/44 106/270/44 119/269/44
f 99/297/44 112/298/44 120/299/44 105/300/44
f 112/298/44 111/295/44 119/269/44 120/299/44
f 101/301/46 116/302/46 118/303/46 107/304/46
f 113/305/49 115/306/49 123/307/49 121/308/49
f 107/304/46 118/303/46 109/309/46 97/310/46
f 118/303/46 117/277/46 110/280/46 109/309/46
f 103/311/45 114/312/45 116/313/45 101/314/45
f 119/315/50 113/305/50 121/308/50 127/316/50
f 105/300/44 120/299/44 114/317/44 103/318/44
f 118/319/51 116/320/51 124/321/51 126/322/51
f 97/323/43 109/324/43 112/325/43 99/326/43
f 109/324/43 110/265/43 111/268/43 112/325/43
f 124/327/46 123/328/46 125/329/46 126/330/46
f 122/331/45 121/332/45 123/333/45 124/334/45
f 128/335/44 127/336/44 121/337/44 122/338/44
f 115/306/52 117/339/52 125/340/52 123/307/52
f 120/341/53 119/342/53 127/343/53 128/344/53
f 114/345/54 120/346/54 128/347/54 122/348/54
f 117/349/55 118/350/55 126/351/55 125/352/55
f 116/320/56 114/345/56 122/348/56 124/321/56
