# Blender v2.79 (sub 1) OBJ File: ''
# www.blender.org
mtllib Porte.mtl
o Cube_Cube.001
v -0.786154 1.280105 -0.235903
v -0.786154 3.351492 -0.235902
v -0.786154 3.351492 -0.266006
v -0.786154 1.280105 -0.266007
v 0.780294 3.351492 -0.266006
v 0.620891 3.140706 -0.266006
v -0.626751 3.140706 -0.266006
v 0.780294 3.351492 -0.235902
v -0.786154 -0.069952 -0.266007
v 0.780294 -0.069952 -0.266007
v 0.780294 -0.069952 -0.235903
v -0.786154 -0.069952 -0.235903
v 0.780294 1.280105 -0.266007
v 0.780294 1.280105 -0.235903
v -0.786154 1.280105 -0.266007
v -0.786154 -0.069952 -0.266007
v 0.780294 1.280105 -0.266007
v 0.780294 -0.069952 -0.266007
v 0.528788 0.146810 -0.279762
v 0.528788 1.063343 -0.279762
v -0.534648 1.063343 -0.279762
v 0.415830 0.965989 -0.256391
v -0.421690 0.965989 -0.256391
v -0.534648 0.146810 -0.279762
v 0.415830 0.244164 -0.256391
v -0.421690 0.244164 -0.256391
v -0.421690 0.244164 -0.242576
v 0.415830 0.244164 -0.242577
v 0.620891 1.490891 -0.266007
v 0.574327 1.552464 -0.296047
v 0.574327 3.079133 -0.296046
v -0.626751 1.490891 -0.266007
v -0.580187 1.552464 -0.296047
v -0.424080 1.686770 -0.296047
v 0.418220 1.686770 -0.296047
v -0.580187 3.079133 -0.296046
v 0.418220 2.944827 -0.296047
v 0.418220 1.686770 -0.282584
v 0.418220 2.944827 -0.282584
v -0.424080 2.944827 -0.296047
v -0.424080 1.686770 -0.282584
v -0.424080 2.944827 -0.282584
v -0.421690 0.965989 -0.242576
v 0.415830 0.965989 -0.242577
v -0.786154 1.280105 -0.205799
v -0.786154 3.351492 -0.205798
v -0.626751 3.140706 -0.205798
v 0.620891 3.140706 -0.205798
v 0.780294 3.351492 -0.205798
v -0.786154 -0.069952 -0.205799
v 0.780294 -0.069952 -0.205799
v 0.780294 1.280105 -0.205799
v -0.786154 -0.069952 -0.205799
v -0.786154 1.280105 -0.205799
v 0.780294 1.280105 -0.205799
v 0.528788 1.063343 -0.192044
v 0.528788 0.146810 -0.192044
v 0.780294 -0.069952 -0.205799
v -0.534648 1.063343 -0.192044
v -0.421690 0.965989 -0.215415
v 0.415830 0.965989 -0.215415
v -0.534648 0.146810 -0.192044
v 0.415830 0.244164 -0.215415
v 0.415830 0.244164 -0.229229
v -0.421690 0.244164 -0.229229
v -0.421690 0.244164 -0.215415
v 0.574327 3.079133 -0.175758
v 0.574327 1.552464 -0.175759
v 0.620891 1.490891 -0.205799
v -0.626751 1.490891 -0.205799
v 0.418220 1.686770 -0.175759
v -0.424080 1.686770 -0.175759
v -0.580187 1.552464 -0.175759
v -0.580187 3.079133 -0.175758
v 0.418220 2.944827 -0.175759
v 0.418220 2.944827 -0.189222
v 0.418220 1.686770 -0.189222
v -0.424080 2.944827 -0.175759
v -0.424080 1.686770 -0.189222
v -0.424080 2.944827 -0.189222
v 0.415830 0.965989 -0.229229
v -0.421690 0.965989 -0.229229
vt 0.916283 0.241422
vt 0.916283 0.179538
vt 0.918577 0.179538
vt 0.918577 0.241422
vt 0.235181 0.077318
vt 0.235180 0.922682
vt 0.219116 0.836657
vt 0.219117 0.163343
vt 0.905188 0.077318
vt 0.905188 0.922681
vt 0.902894 0.922681
vt 0.902894 0.077318
vt 0.909777 0.077318
vt 0.909777 0.922681
vt 0.907483 0.922681
vt 0.907483 0.077318
vt 0.913989 0.139203
vt 0.913989 0.077318
vt 0.916283 0.077318
vt 0.916283 0.139203
vt 0.913989 0.179538
vt 0.916283 0.179538
vt 0.077318 0.077318
vt 0.077318 0.077318
vt 0.077318 0.077318
vt 0.077318 0.077318
vt 0.916283 0.281757
vt 0.918577 0.281757
vt 0.393043 0.077318
vt 0.495932 0.077318
vt 0.479412 0.213048
vt 0.409563 0.213048
vt 0.077318 0.077318
vt 0.077318 0.077318
vt 0.077318 0.077318
vt 0.077318 0.077318
vt 0.409563 0.786952
vt 0.416982 0.274008
vt 0.416983 0.725992
vt 0.495933 0.922682
vt 0.393044 0.922682
vt 0.479413 0.786952
vt 0.912936 0.077318
vt 0.912936 0.529302
vt 0.911883 0.529302
vt 0.911883 0.077318
vt 0.471993 0.725992
vt 0.471993 0.274008
vt 0.093383 0.836657
vt 0.098075 0.811528
vt 0.214424 0.811528
vt 0.093383 0.163343
vt 0.077318 0.922682
vt 0.098075 0.188472
vt 0.108311 0.272718
vt 0.108311 0.727282
vt 0.214424 0.188472
vt 0.915015 0.356928
vt 0.915015 0.394514
vt 0.913989 0.394514
vt 0.913989 0.356928
vt 0.204188 0.272718
vt 0.204188 0.727282
vt 0.694700 0.531881
vt 0.598822 0.531881
vt 0.598822 0.077318
vt 0.694700 0.077318
vt 0.921656 0.077318
vt 0.921656 0.531881
vt 0.920630 0.531881
vt 0.920630 0.077318
vt 0.920630 0.077318
vt 0.920629 0.531881
vt 0.919603 0.531881
vt 0.919603 0.077318
vt 0.913989 0.319343
vt 0.913989 0.281757
vt 0.915015 0.281757
vt 0.915015 0.319343
vt 0.845589 0.529302
vt 0.790578 0.529302
vt 0.790578 0.077318
vt 0.845589 0.077318
vt 0.916067 0.362473
vt 0.916067 0.384038
vt 0.915015 0.384038
vt 0.915015 0.362473
vt 0.915015 0.362473
vt 0.915015 0.340908
vt 0.916067 0.340908
vt 0.916067 0.362473
vt 0.909777 0.529302
vt 0.909777 0.077318
vt 0.910830 0.077318
vt 0.910830 0.529302
vt 0.913989 0.241422
vt 0.913989 0.179538
vt 0.235181 0.077318
vt 0.251245 0.163343
vt 0.251245 0.836657
vt 0.235181 0.922682
vt 0.900600 0.077318
vt 0.900600 0.922681
vt 0.905189 0.077318
vt 0.905188 0.922681
vt 0.918577 0.139203
vt 0.918577 0.077318
vt 0.918577 0.179538
vt 0.077318 0.077318
vt 0.077318 0.077318
vt 0.077318 0.077318
vt 0.077318 0.077318
vt 0.913989 0.281757
vt 0.495933 0.922682
vt 0.512453 0.786952
vt 0.582302 0.786952
vt 0.598822 0.922682
vt 0.077318 0.077318
vt 0.077318 0.077318
vt 0.077318 0.077318
vt 0.077318 0.077318
vt 0.512452 0.213048
vt 0.519872 0.274008
vt 0.519872 0.725992
vt 0.598822 0.077318
vt 0.582302 0.213048
vt 0.495933 0.077318
vt 0.912936 0.077318
vt 0.913989 0.077318
vt 0.913989 0.529302
vt 0.912936 0.529302
vt 0.574883 0.725992
vt 0.574883 0.274008
vt 0.255938 0.811528
vt 0.372286 0.811528
vt 0.376979 0.836657
vt 0.393043 0.077318
vt 0.376979 0.163343
vt 0.393043 0.922682
vt 0.362051 0.727282
vt 0.362051 0.272718
vt 0.372286 0.188472
vt 0.255937 0.188472
vt 0.915015 0.281757
vt 0.916041 0.281757
vt 0.916041 0.319343
vt 0.915015 0.319343
vt 0.266173 0.272718
vt 0.266173 0.727282
vt 0.790578 0.077318
vt 0.790578 0.531881
vt 0.694700 0.531881
vt 0.694700 0.077318
vt 0.918577 0.077318
vt 0.919603 0.077318
vt 0.919603 0.531881
vt 0.918577 0.531881
vt 0.921656 0.077318
vt 0.922682 0.077318
vt 0.922682 0.531881
vt 0.921656 0.531881
vt 0.915015 0.356928
vt 0.913989 0.356928
vt 0.913989 0.319343
vt 0.915015 0.319343
vt 0.900600 0.077318
vt 0.900600 0.529302
vt 0.845589 0.529302
vt 0.845589 0.077318
vt 0.915015 0.384038
vt 0.916067 0.384038
vt 0.916067 0.405604
vt 0.915015 0.405604
vt 0.916067 0.340908
vt 0.915015 0.340908
vt 0.915015 0.319343
vt 0.916067 0.319343
vt 0.911883 0.529302
vt 0.910830 0.529302
vt 0.910830 0.077318
vt 0.911883 0.077318
vn -1.0000 -0.0000 0.0000
vn 0.0000 0.0000 -1.0000
vn 0.0000 1.0000 0.0000
vn 0.0000 -1.0000 -0.0000
vn 1.0000 0.0000 0.0000
vn 0.0000 0.0000 1.0000
vn 0.0546 0.0000 -0.9985
vn 0.0000 -0.2334 -0.9724
vn -0.0546 0.0000 -0.9985
vn 0.0000 0.0633 -0.9980
vn 0.0000 -0.0633 -0.9980
vn 0.0000 0.2334 -0.9724
vn -0.2026 0.0000 -0.9793
vn 0.2026 0.0000 -0.9793
vn 0.5421 0.0000 -0.8403
vn 0.0000 0.4385 -0.8987
vn 0.0000 -0.4385 -0.8987
vn -0.5421 0.0000 -0.8403
vn 0.0546 -0.0000 0.9985
vn 0.0000 -0.2334 0.9724
vn -0.0546 -0.0000 0.9985
vn 0.0000 0.0633 0.9980
vn 0.0000 -0.0633 0.9980
vn 0.0000 0.2334 0.9724
vn -0.2026 -0.0000 0.9793
vn 0.2026 -0.0000 0.9793
vn 0.5421 -0.0000 0.8403
vn 0.0000 0.4385 0.8987
vn 0.0000 -0.4385 0.8987
vn -0.5421 -0.0000 0.8403
usemtl Matériau.005
s 1
f 1/1/1 2/2/1 3/3/1 4/4/1
f 3/5/2 5/6/2 6/7/2 7/8/2
f 5/9/3 3/10/3 2/11/3 8/12/3
f 9/13/4 10/14/4 11/15/4 12/16/4
f 13/17/5 5/18/5 8/19/5 14/20/5
f 10/21/5 13/17/5 14/20/5 11/22/5
f 9/23/6 4/24/6 15/25/6 16/26/6
f 12/27/1 1/1/1 4/4/1 9/28/1
f 17/29/7 18/30/7 19/31/7 20/32/7
f 4/24/6 13/33/6 17/34/6 15/25/6
f 13/33/6 10/35/6 18/36/6 17/34/6
f 10/35/6 9/23/6 16/26/6 18/36/6
f 21/37/8 20/32/8 22/38/8 23/39/8
f 16/40/9 15/41/9 21/37/9 24/42/9
f 15/41/10 17/29/10 20/32/10 21/37/10
f 18/30/11 16/40/11 24/42/11 19/31/11
f 25/43/3 26/44/3 27/45/3 28/46/3
f 19/31/12 24/42/12 26/47/12 25/48/12
f 20/32/13 19/31/13 25/48/13 22/38/13
f 24/42/14 21/37/14 23/39/14 26/47/14
f 6/7/15 29/49/15 30/50/15 31/51/15
f 4/24/2 3/5/2 7/8/2 32/52/2
f 13/53/2 4/24/2 32/52/2 29/49/2
f 5/6/2 13/53/2 29/49/2 6/7/2
f 30/50/2 33/54/2 34/55/2 35/56/2
f 7/8/16 6/7/16 31/51/16 36/57/16
f 29/49/17 32/52/17 33/54/17 30/50/17
f 32/52/18 7/8/18 36/57/18 33/54/18
f 37/58/1 35/59/1 38/60/1 39/61/1
f 33/54/2 36/57/2 40/62/2 34/55/2
f 31/51/2 30/50/2 35/56/2 37/63/2
f 36/57/2 31/51/2 37/63/2 40/62/2
f 41/64/2 42/65/2 39/66/2 38/67/2
f 40/68/4 37/69/4 39/70/4 42/71/4
f 35/72/3 34/73/3 41/74/3 38/75/3
f 34/76/5 40/77/5 42/78/5 41/79/5
f 27/80/2 43/81/2 44/82/2 28/83/2
f 22/84/1 25/85/1 28/86/1 44/87/1
f 26/88/5 23/89/5 43/90/5 27/91/5
f 23/92/4 22/93/4 44/94/4 43/95/4
f 1/1/1 45/96/1 46/97/1 2/2/1
f 46/98/6 47/99/6 48/100/6 49/101/6
f 49/102/3 8/12/3 2/11/3 46/103/3
f 50/104/4 12/16/4 11/15/4 51/105/4
f 52/106/5 14/20/5 8/19/5 49/107/5
f 51/108/5 11/22/5 14/20/5 52/106/5
f 50/109/6 53/110/6 54/111/6 45/112/6
f 12/27/1 50/113/1 45/96/1 1/1/1
f 55/114/19 56/115/19 57/116/19 58/117/19
f 45/112/6 54/111/6 55/118/6 52/119/6
f 52/119/6 55/118/6 58/120/6 51/121/6
f 51/121/6 58/120/6 53/110/6 50/109/6
f 59/122/20 60/123/20 61/124/20 56/115/20
f 53/125/21 62/126/21 59/122/21 54/127/21
f 54/127/22 59/122/22 56/115/22 55/114/22
f 58/117/23 57/116/23 62/126/23 53/125/23
f 63/128/3 64/129/3 65/130/3 66/131/3
f 57/116/24 63/132/24 66/133/24 62/126/24
f 56/115/25 61/124/25 63/132/25 57/116/25
f 62/126/26 66/133/26 60/123/26 59/122/26
f 48/100/27 67/134/27 68/135/27 69/136/27
f 45/137/6 70/138/6 47/99/6 46/98/6
f 52/139/6 69/136/6 70/138/6 45/137/6
f 49/101/6 48/100/6 69/136/6 52/139/6
f 68/135/6 71/140/6 72/141/6 73/142/6
f 47/99/28 74/143/28 67/134/28 48/100/28
f 69/136/29 68/135/29 73/142/29 70/138/29
f 70/138/30 73/142/30 74/143/30 47/99/30
f 75/144/1 76/145/1 77/146/1 71/147/1
f 73/142/6 72/141/6 78/148/6 74/143/6
f 67/134/6 75/149/6 71/140/6 68/135/6
f 74/143/6 78/148/6 75/149/6 67/134/6
f 79/150/6 77/151/6 76/152/6 80/153/6
f 78/154/4 80/155/4 76/156/4 75/157/4
f 71/158/3 77/159/3 79/160/3 72/161/3
f 72/162/5 79/163/5 80/164/5 78/165/5
f 65/166/6 64/167/6 81/168/6 82/169/6
f 61/170/1 81/171/1 64/172/1 63/173/1
f 66/174/5 65/175/5 82/176/5 60/177/5
f 60/178/4 82/179/4 81/180/4 61/181/4
