# Blender v2.79 (sub 0) OBJ File: ''
# www.blender.org
mtllib machine_a_compter.mtl
o Cube_Cube.002
v -1.000000 -0.194780 1.000000
v -1.000000 0.194780 1.000000
v -1.000000 -0.194780 -1.000000
v -1.000000 0.194780 -1.000000
v 1.000000 -0.194780 1.000000
v 1.000000 0.194780 1.000000
v 1.000000 -0.194780 -1.000000
v 1.000000 0.194780 -1.000000
v -0.880674 0.194780 0.880674
v -0.880674 0.194780 -0.880674
v 0.880674 0.194780 -0.880674
v 0.880674 0.194780 0.880674
v -1.000000 -0.194780 0.000000
v -1.000000 0.194780 0.000000
v 1.000000 -0.194780 0.000000
v 1.000000 0.194780 0.000000
v -0.880674 0.194780 0.441219
v 0.880674 0.194780 0.441219
v -0.880674 1.427633 0.000000
v -0.880674 1.427633 -0.880674
v 0.880674 1.427633 -0.880674
v 0.880674 1.427633 0.000000
v -0.880674 1.603043 0.000000
v -0.880674 1.603043 -0.880674
v 0.880674 1.603043 -0.880674
v 0.880674 1.603043 0.000000
v -0.908698 -0.123310 1.000000
v -0.908698 0.123310 1.000000
v 0.908698 0.123310 1.000000
v 0.908698 -0.123310 1.000000
v -0.908698 -0.123310 1.639581
v -0.908698 0.123310 1.639581
v 0.908698 0.123310 1.639581
v 0.908698 -0.123310 1.639581
v 0.756122 0.123310 0.913376
v -0.756122 0.123310 0.913376
v 0.756122 0.123310 1.548623
v -0.756122 0.123310 1.548623
v 0.756122 0.009066 0.913376
v -0.756122 0.009066 0.913376
v 0.756122 0.009066 1.548623
v -0.756122 0.009066 1.548623
v -0.046512 -0.048779 1.639581
v -0.046512 0.048779 1.639581
v 0.046512 0.048779 1.639581
v 0.046512 -0.048779 1.639581
v -0.046512 -0.048779 1.669878
v -0.046512 0.048779 1.669878
v 0.046512 0.048779 1.669878
v 0.046512 -0.048779 1.669878
v -0.066946 -0.070209 1.686549
v -0.066946 0.070209 1.686549
v 0.066946 0.070209 1.686549
v 0.066946 -0.070209 1.686549
v -0.066946 -0.070209 1.723698
v -0.066946 0.070209 1.723698
v 0.066946 0.070209 1.723698
v 0.066946 -0.070209 1.723698
v -0.041223 -0.043232 1.736276
v -0.041223 0.043232 1.736276
v 0.041223 0.043232 1.736276
v 0.041223 -0.043232 1.736276
v -1.000000 0.194780 -0.500000
v 1.000000 -0.194780 -0.500000
v -0.880674 0.194780 -0.219727
v -1.000000 -0.194780 -0.500000
v 1.000000 0.194780 -0.500000
v 0.880674 0.194780 -0.219727
v -0.880674 1.427633 -0.440337
v 0.880674 1.427633 -0.440337
v -0.880674 1.603043 -0.440337
v 0.880674 1.603043 -0.440337
v -1.000000 0.194780 -0.750000
v 1.000000 -0.194780 -0.750000
v -0.880674 0.194780 -0.550200
v -0.880674 1.427633 -0.660505
v -0.880674 1.603043 -0.660505
v -1.000000 -0.194780 -0.750000
v 1.000000 0.194780 -0.750000
v 0.880674 0.194780 -0.550200
v 0.880674 1.427633 -0.660505
v 0.880674 1.603043 -0.660505
v 0.000000 -0.194780 -1.000000
v 0.000000 0.194780 -1.000000
v 0.000000 -0.194780 1.000000
v 0.000000 0.194780 1.000000
v 0.000000 0.194780 -0.880674
v 0.000000 0.194780 0.880674
v 0.000000 0.194780 0.441219
v 0.000000 -0.194780 0.000000
v 0.000000 1.427633 -0.880674
v 0.000000 1.427633 0.000000
v 0.000000 1.603043 -0.880674
v 0.000000 1.603043 0.000000
v 0.000000 -0.123310 1.000000
v 0.000000 0.123310 1.000000
v 0.000000 -0.123310 1.639581
v 0.000000 0.123310 1.639581
v 0.000000 0.123310 0.913376
v 0.000000 0.123310 1.548623
v 0.000000 0.009066 0.913376
v 0.000000 0.009066 1.548623
v 0.000000 -0.048779 1.639581
v 0.000000 0.048779 1.639581
v 0.000000 -0.048779 1.669878
v 0.000000 0.048779 1.669878
v 0.000000 -0.070209 1.686549
v 0.000000 0.070209 1.686549
v 0.000000 -0.070209 1.723698
v 0.000000 0.070209 1.723698
v 0.000000 -0.043232 1.736276
v 0.000000 0.043232 1.736276
v 0.000000 1.603043 -0.440337
v 0.000000 -0.194780 -0.500000
v 0.000000 -0.194780 -0.750000
v 0.000000 1.603043 -0.660505
v 0.500000 0.194780 -1.000000
v 0.500000 -0.194780 1.000000
v 0.440337 0.194780 -0.880674
v 0.440337 0.194780 0.441219
v 0.440337 1.427633 -0.880674
v 0.440337 1.427633 0.000000
v 0.440337 1.603043 -0.880674
v 0.440337 1.603043 0.000000
v 0.454349 -0.123310 1.000000
v 0.454349 -0.123310 1.639581
v 0.023256 -0.048779 1.639581
v 0.023256 -0.048779 1.669878
v 0.033473 -0.070209 1.686549
v 0.033473 -0.070209 1.723698
v 0.020612 -0.043232 1.736276
v 0.440337 1.603043 -0.440337
v 0.440337 1.603043 -0.660505
v 0.500000 -0.194780 -1.000000
v 0.500000 0.194780 1.000000
v 0.440337 0.194780 0.880674
v 0.500000 -0.194780 0.000000
v 0.454349 0.123310 1.000000
v 0.454349 0.123310 1.639581
v 0.378061 0.123310 0.913376
v 0.378061 0.123310 1.548623
v 0.378061 0.009066 0.913376
v 0.378061 0.009066 1.548623
v 0.023256 0.048779 1.639581
v 0.023256 0.048779 1.669878
v 0.033473 0.070209 1.686549
v 0.033473 0.070209 1.723698
v 0.020612 0.043232 1.736276
v 0.500000 -0.194780 -0.500000
v 0.500000 -0.194780 -0.750000
v 0.000000 1.951284 -0.660505
v 0.000000 1.951284 -0.440337
v 0.440337 1.951284 -0.440337
v 0.440337 1.951284 -0.660505
vt 0.594820 0.505452
vt 0.490933 0.505452
vt 0.490933 0.492363
vt 0.594820 0.492363
vt 0.594820 0.413831
vt 0.490933 0.413831
vt 0.490933 0.387654
vt 0.594820 0.387654
vt 0.542877 0.597072
vt 0.542877 0.701781
vt 0.490933 0.701781
vt 0.490933 0.597072
vt 0.469888 0.818534
vt 0.469888 0.870888
vt 0.450829 0.866108
vt 0.450829 0.818534
vt 0.314059 0.792356
vt 0.314059 0.766179
vt 0.366003 0.766179
vt 0.366003 0.792356
vt 0.542877 0.806491
vt 0.490933 0.806491
vt 0.497132 0.800243
vt 0.519958 0.800243
vt 0.519958 0.754136
vt 0.497132 0.754136
vt 0.490933 0.727959
vt 0.497131 0.708029
vt 0.497132 0.731082
vt 0.594820 0.754136
vt 0.594820 0.806491
vt 0.588622 0.800243
vt 0.588622 0.754136
vt 0.581834 0.701781
vt 0.594820 0.701781
vt 0.588622 0.708029
vt 0.571456 0.708029
vt 0.519958 0.708029
vt 0.307861 0.766179
vt 0.262116 0.766179
vt 0.262116 0.434802
vt 0.307861 0.434802
vt 0.568848 0.806491
vt 0.554290 0.800243
vt 0.288088 0.792356
vt 0.288088 0.766179
vt 0.568848 0.597072
vt 0.568848 0.701781
vt 0.594820 0.597072
vt 0.490933 0.597072
vt 0.490933 0.544717
vt 0.594820 0.544717
vt 0.193499 0.434801
vt 0.170626 0.434801
vt 0.170626 0.387654
vt 0.193499 0.387654
vt 0.193499 0.766304
vt 0.170626 0.766304
vt 0.370772 0.766179
vt 0.353606 0.766179
vt 0.353606 0.434802
vt 0.365043 0.434802
vt 0.456602 0.766179
vt 0.422270 0.766179
vt 0.445188 0.434802
vt 0.468061 0.434802
vt 0.617692 0.433761
vt 0.617692 0.387654
vt 0.640565 0.387654
vt 0.640565 0.433761
vt 0.262116 0.387654
vt 0.307861 0.387654
vt 0.353606 0.387654
vt 0.365043 0.387654
vt 0.445188 0.387654
vt 0.468061 0.387654
vt 0.628042 0.646379
vt 0.628042 0.670166
vt 0.594820 0.670166
vt 0.594820 0.646379
vt 0.469888 0.766179
vt 0.450829 0.770959
vt 0.385062 0.770959
vt 0.366003 0.870888
vt 0.385062 0.866108
vt 0.385062 0.794746
vt 0.236393 0.813878
vt 0.236393 0.861453
vt 0.216517 0.816314
vt 0.216517 0.813878
vt 0.557377 0.806491
vt 0.557377 0.872779
vt 0.524155 0.872779
vt 0.524155 0.806491
vt 0.594820 0.503655
vt 0.594820 0.479868
vt 0.599545 0.487856
vt 0.599545 0.507650
vt 0.490933 0.872779
vt 0.490933 0.806491
vt 0.524155 0.806491
vt 0.524155 0.872779
vt 0.557377 0.839749
vt 0.557377 0.806491
vt 0.587843 0.806491
vt 0.587843 0.839749
vt 0.485824 0.813753
vt 0.485823 0.861328
vt 0.481324 0.853340
vt 0.481324 0.813753
vt 0.628042 0.575017
vt 0.594820 0.575017
vt 0.599545 0.567029
vt 0.632541 0.567029
vt 0.628042 0.479868
vt 0.632541 0.487856
vt 0.627817 0.709753
vt 0.627817 0.749339
vt 0.594820 0.749339
vt 0.594820 0.709753
vt 0.655752 0.788926
vt 0.655752 0.828512
vt 0.625286 0.828512
vt 0.625286 0.788926
vt 0.594820 0.861770
vt 0.594820 0.828512
vt 0.625286 0.828512
vt 0.625286 0.861770
vt 0.594820 0.769132
vt 0.594820 0.749339
vt 0.625286 0.749339
vt 0.625286 0.769132
vt 0.932971 0.109894
vt 0.932585 0.109594
vt 0.933059 0.109577
vt 0.932942 0.109735
vt 0.170626 0.766304
vt 0.236393 0.766304
vt 0.216517 0.811443
vt 0.190502 0.811443
vt 0.170626 0.790091
vt 0.190502 0.812661
vt 0.170626 0.861453
vt 0.190502 0.816314
vt 0.933015 0.096716
vt 0.933024 0.097041
vt 0.932961 0.094986
vt 0.932941 0.095143
vt 0.933609 0.096961
vt 0.933609 0.109333
vt 0.933021 0.109252
vt 0.933320 0.096543
vt 0.932586 0.096721
vt 0.933064 0.096740
vt 0.932838 0.111183
vt 0.932943 0.111678
vt 0.932501 0.111898
vt 0.932921 0.111194
vt 0.932972 0.094625
vt 0.932937 0.111318
vt 0.933138 0.095021
vt 0.933114 0.111283
vt 0.933166 0.108446
vt 0.933151 0.097868
vt 0.933024 0.095168
vt 0.932530 0.094401
vt 0.932808 0.097661
vt 0.932824 0.108642
vt 0.932228 0.108719
vt 0.932211 0.097576
vt 0.932973 0.097744
vt 0.479497 0.434802
vt 0.479497 0.387654
vt 0.399351 0.434802
vt 0.376479 0.434802
vt 0.376479 0.387654
vt 0.399351 0.387654
vt 0.606256 0.433761
vt 0.606256 0.387654
vt 0.473767 0.766179
vt 0.422270 0.766179
vt 0.387938 0.766179
vt 0.581834 0.597072
vt 0.275102 0.792356
vt 0.275102 0.766179
vt 0.581834 0.806491
vt 0.571456 0.800243
vt 0.554290 0.708029
vt 0.490933 0.518540
vt 0.594820 0.518540
vt 0.262116 0.792356
vt 0.262116 0.766179
vt 0.594820 0.597072
vt 0.490933 0.766179
vt 0.490933 0.434802
vt 0.594820 0.433761
vt 0.594820 0.387654
vt 0.490933 0.387654
vt 0.594820 0.456815
vt 0.606256 0.456815
vt 0.262116 0.870888
vt 0.262116 0.818534
vt 0.275102 0.818534
vt 0.275102 0.870888
vt 0.288088 0.818534
vt 0.288088 0.870888
vt 0.259265 0.859907
vt 0.236393 0.859907
vt 0.236393 0.766304
vt 0.259265 0.766304
vt 0.933002 0.111136
vt 0.932988 0.108564
vt 0.932942 0.095110
vt 0.932860 0.095120
vt 0.933011 0.109583
vt 0.932919 0.111160
vt 0.932969 0.096411
vt 0.932946 0.096570
vt 0.170626 0.813878
vt 0.190502 0.813878
vt 0.933322 0.109756
vt 0.594820 0.828512
vt 0.594820 0.788926
vt 0.625286 0.788926
vt 0.625286 0.828512
vt 0.655752 0.769132
vt 0.625286 0.769132
vt 0.627817 0.689960
vt 0.594820 0.689960
vt 0.485824 0.789966
vt 0.481324 0.793960
vt 0.594820 0.527443
vt 0.599545 0.527443
vt 0.236393 0.790091
vt 0.216517 0.812661
vt 0.366003 0.818534
vt 0.385062 0.818534
vt 0.628042 0.575017
vt 0.628042 0.622592
vt 0.594820 0.622592
vt 0.594820 0.575017
vt 0.330734 0.434802
vt 0.330734 0.387654
vt 0.617692 0.456815
vt 0.640565 0.456815
vt 0.262116 0.766304
vt 0.216371 0.766304
vt 0.216371 0.434801
vt 0.262116 0.434801
vt 0.216371 0.387654
vt 0.262116 0.387654
vt 0.314059 0.818534
vt 0.314059 0.870888
vt 0.330734 0.766179
vt 0.594820 0.727959
vt 0.588622 0.731082
vt 0.490933 0.754136
vt 0.519958 0.731082
vt 0.469888 0.792356
vt 0.450829 0.794746
vt 0.490933 0.440008
vt 0.594820 0.440008
vt 0.617692 0.479868
vt 0.640565 0.479868
vt 0.485824 0.766179
vt 0.481324 0.774167
vt 0.627817 0.670166
vt 0.594820 0.670166
vt 0.655752 0.749339
vt 0.625286 0.749339
vt 0.606256 0.479868
vt 0.594820 0.479868
vt 0.639253 0.670166
vt 0.639253 0.693220
vt 0.627817 0.693220
vt 0.627817 0.670166
vt 0.632541 0.479868
vt 0.643978 0.479868
vt 0.643978 0.573471
vt 0.632541 0.573471
vt 0.650914 0.668619
vt 0.628042 0.668619
vt 0.628042 0.575017
vt 0.650914 0.575017
vt 0.481324 0.859782
vt 0.469888 0.859782
vt 0.469888 0.766179
vt 0.481324 0.766179
vn -1.0000 0.0000 0.0000
vn 0.0000 0.0000 -1.0000
vn 1.0000 0.0000 0.0000
vn 0.0000 0.0000 1.0000
vn 0.0000 -1.0000 0.0000
vn 0.0000 1.0000 0.0000
vn 0.0000 0.3370 0.9415
vn 0.0000 -0.6140 -0.7893
vn -0.6322 0.0000 -0.7748
vn 0.0000 0.6140 -0.7893
vn 0.6322 0.0000 -0.7748
vn 0.4393 0.0000 0.8983
vn 0.0000 -0.4226 0.9063
vn -0.4393 0.0000 0.8983
vn 0.0000 0.4226 0.9063
usemtl Material.019
s off
f 78/1/1 73/2/1 4/3/1 3/4/1
f 134/5/2 117/6/2 8/7/2 7/8/2
f 15/9/3 16/10/3 6/11/3 5/12/3
f 86/13/4 2/14/4 28/15/4 96/16/4
f 137/17/5 15/18/5 5/19/5 118/20/5
f 14/21/6 2/22/6 9/23/6 17/24/6
f 89/25/6 17/24/6 9/23/6 88/26/6
f 135/27/6 6/11/6 12/28/6 136/29/6
f 84/30/6 4/31/6 10/32/6 87/33/6
f 79/34/6 8/35/6 11/36/6 80/37/6
f 6/11/6 16/10/6 18/38/6 12/28/6
f 87/39/2 10/40/2 20/41/2 91/42/2
f 63/43/6 14/21/6 17/24/6 65/44/6
f 149/45/5 64/46/5 15/18/5 137/17/5
f 64/47/3 67/48/3 16/10/3 15/9/3
f 1/49/1 2/50/1 14/51/1 13/52/1
f 122/53/4 22/54/4 26/55/4 124/56/4
f 120/57/7 18/58/7 22/54/7 122/53/7
f 80/59/3 11/60/3 21/61/3 81/62/3
f 65/63/1 17/64/1 19/65/1 69/66/1
f 113/67/6 71/68/6 23/69/6 94/70/6
f 91/42/2 20/41/2 24/71/2 93/72/2
f 81/62/3 21/61/3 25/73/3 82/74/3
f 69/66/1 19/65/1 23/75/1 71/76/1
f 125/77/5 30/78/5 34/79/5 126/80/5
f 5/19/4 6/81/4 29/82/4 30/83/4
f 2/14/4 1/84/4 27/85/4 28/15/4
f 118/20/4 5/19/4 30/83/4 125/86/4
f 98/87/4 32/88/4 44/89/4 104/90/4
f 28/91/1 27/92/1 31/93/1 32/94/1
f 139/95/6 33/96/6 37/97/6 141/98/6
f 30/99/3 29/100/3 33/101/3 34/102/3
f 36/103/3 38/104/3 42/105/3 40/106/3
f 96/107/5 28/108/5 36/109/5 99/110/5
f 28/111/6 32/112/6 38/113/6 36/114/6
f 33/96/6 29/115/6 35/116/6 37/97/6
f 101/117/6 40/118/6 42/119/6 102/120/6
f 99/121/4 36/122/4 40/123/4 101/124/4
f 37/125/1 35/126/1 39/127/1 41/128/1
f 141/129/2 37/130/2 41/131/2 143/132/2
f 104/133/6 44/134/6 48/135/6 106/136/6
f 34/137/4 33/138/4 45/139/4 46/140/4
f 126/141/4 34/137/4 46/140/4 127/142/4
f 32/88/4 31/143/4 43/144/4 44/89/4
f 128/145/8 50/146/8 54/147/8 129/148/8
f 46/149/3 45/150/3 49/151/3 50/146/3
f 127/152/5 46/149/5 50/146/5 128/145/5
f 44/134/1 43/153/1 47/154/1 48/135/1
f 108/155/6 52/156/6 56/157/6 110/158/6
f 48/135/9 47/154/9 51/159/9 52/156/9
f 106/136/10 48/135/10 52/156/10 108/155/10
f 50/146/11 49/151/11 53/160/11 54/147/11
f 58/161/12 57/162/12 61/163/12 62/164/12
f 54/147/3 53/160/3 57/162/3 58/161/3
f 129/148/5 54/147/5 58/161/5 130/165/5
f 52/156/1 51/159/1 55/166/1 56/157/1
f 111/167/4 112/168/4 60/169/4 59/170/4
f 130/165/13 58/161/13 62/164/13 131/171/13
f 56/157/14 55/166/14 59/170/14 60/169/14
f 110/158/15 56/157/15 60/169/15 112/168/15
f 76/172/1 69/66/1 71/76/1 77/173/1
f 22/174/3 70/175/3 72/176/3 26/177/3
f 116/178/6 77/179/6 71/68/6 113/67/6
f 75/180/1 65/63/1 69/66/1 76/172/1
f 18/181/3 68/182/3 70/175/3 22/174/3
f 74/183/3 79/34/3 67/48/3 64/47/3
f 150/184/5 74/185/5 64/46/5 149/45/5
f 73/186/6 63/43/6 65/44/6 75/187/6
f 16/10/6 67/48/6 68/188/6 18/38/6
f 13/52/1 14/51/1 63/189/1 66/190/1
f 4/31/6 73/186/6 75/187/6 10/32/6
f 134/191/5 7/192/5 74/185/5 150/184/5
f 7/193/3 8/35/3 79/34/3 74/183/3
f 10/194/1 75/180/1 76/172/1 20/195/1
f 93/196/6 24/197/6 77/179/6 116/178/6
f 20/195/1 76/172/1 77/173/1 24/198/1
f 70/175/3 81/62/3 82/74/3 72/176/3
f 68/182/3 80/59/3 81/62/3 70/175/3
f 67/48/6 79/34/6 80/37/6 68/188/6
f 66/190/1 63/189/1 73/2/1 78/1/1
f 123/199/6 93/196/6 116/178/6 133/200/6
f 3/201/5 83/202/5 115/203/5 78/204/5
f 78/204/5 115/203/5 114/205/5 66/206/5
f 133/207/2 116/208/2 151/209/2 154/210/2
f 147/211/15 110/158/15 112/168/15 148/212/15
f 55/166/13 109/213/13 111/167/13 59/170/13
f 131/171/4 148/212/4 112/168/4 111/167/4
f 51/159/5 107/214/5 109/213/5 55/166/5
f 145/215/10 106/136/10 108/155/10 146/216/10
f 146/216/6 108/155/6 110/158/6 147/211/6
f 43/153/5 103/217/5 105/218/5 47/154/5
f 47/154/8 105/218/8 107/214/8 51/159/8
f 31/143/4 97/219/4 103/220/4 43/144/4
f 144/221/6 104/133/6 106/136/6 145/215/6
f 38/222/2 100/223/2 102/224/2 42/225/2
f 140/226/4 99/121/4 101/124/4 142/227/4
f 142/228/6 101/117/6 102/120/6 143/229/6
f 138/230/5 96/107/5 99/110/5 140/231/5
f 32/112/6 98/232/6 100/233/6 38/113/6
f 139/234/4 98/87/4 104/90/4 144/235/4
f 1/84/4 85/236/4 95/237/4 27/85/4
f 27/238/5 95/239/5 97/240/5 31/241/5
f 121/242/2 91/42/2 93/72/2 123/243/2
f 132/244/6 113/67/6 94/70/6 124/245/6
f 17/246/7 89/247/7 92/248/7 19/249/7
f 19/249/4 92/248/4 94/250/4 23/251/4
f 66/206/5 114/205/5 90/252/5 13/253/5
f 119/254/2 87/39/2 91/42/2 121/242/2
f 117/255/6 84/30/6 87/33/6 119/256/6
f 2/22/6 86/257/6 88/26/6 9/23/6
f 120/258/6 89/25/6 88/26/6 136/29/6
f 13/253/5 90/252/5 85/236/5 1/84/5
f 135/259/4 86/13/4 96/16/4 138/260/4
f 3/4/2 4/3/2 84/261/2 83/262/2
f 6/81/4 135/259/4 138/260/4 29/82/4
f 18/38/6 120/258/6 136/29/6 12/28/6
f 8/35/6 117/255/6 119/256/6 11/36/6
f 11/60/2 119/254/2 121/242/2 21/61/2
f 72/263/6 132/244/6 124/245/6 26/264/6
f 21/61/2 121/242/2 123/243/2 25/73/2
f 33/138/4 139/234/4 144/235/4 45/139/4
f 29/265/5 138/230/5 140/231/5 35/266/5
f 39/267/6 142/228/6 143/229/6 41/268/6
f 35/269/4 140/226/4 142/227/4 39/270/4
f 45/150/6 144/221/6 145/215/6 49/151/6
f 53/160/6 146/216/6 147/211/6 57/162/6
f 49/151/10 145/215/10 146/216/10 53/160/10
f 62/164/4 61/163/4 148/212/4 131/171/4
f 57/162/15 147/211/15 148/212/15 61/163/15
f 82/271/6 133/200/6 132/244/6 72/263/6
f 25/272/6 123/199/6 133/200/6 82/271/6
f 83/202/5 134/191/5 150/184/5 115/203/5
f 115/203/5 150/184/5 149/45/5 114/205/5
f 109/213/13 130/165/13 131/171/13 111/167/13
f 107/214/5 129/148/5 130/165/5 109/213/5
f 103/217/5 127/152/5 128/145/5 105/218/5
f 105/218/8 128/145/8 129/148/8 107/214/8
f 97/219/4 126/141/4 127/142/4 103/220/4
f 100/223/2 141/129/2 143/132/2 102/224/2
f 98/232/6 139/95/6 141/98/6 100/233/6
f 85/236/4 118/20/4 125/86/4 95/237/4
f 95/239/5 125/77/5 126/80/5 97/240/5
f 89/247/7 120/57/7 122/53/7 92/248/7
f 92/248/4 122/53/4 124/56/4 94/250/4
f 114/205/5 149/45/5 137/17/5 90/252/5
f 86/257/6 135/27/6 136/29/6 88/26/6
f 90/252/5 137/17/5 118/20/5 85/236/5
f 83/262/2 84/261/2 117/6/2 134/5/2
f 154/273/6 151/274/6 152/275/6 153/276/6
f 132/277/3 133/278/3 154/279/3 153/280/3
f 113/281/4 132/282/4 153/283/4 152/284/4
f 116/285/1 113/286/1 152/287/1 151/288/1
