# Blender v2.79 (sub 0) OBJ File: ''
# www.blender.org
mtllib Livre_HD.mtl
o Cube_Cube.001
v -0.724564 -0.165699 0.762595
v -0.724564 0.165699 0.762595
v -0.724564 -0.165699 -0.762595
v -0.724564 0.165699 -0.762595
v 0.724564 -0.165699 0.762595
v 0.724564 0.165699 0.762595
v 0.724564 -0.165699 -0.762595
v 0.724564 0.165699 -0.762595
v -0.502985 -0.165699 -0.762595
v -0.502985 0.165699 -0.762595
v -0.502985 -0.165699 0.762595
v -0.502985 0.165699 0.762595
v -0.724564 -0.090432 0.762595
v -0.724564 0.090432 0.762595
v -0.724564 0.090432 -0.762595
v -0.724564 -0.090432 -0.762595
v 0.724564 0.090432 -0.762595
v 0.724564 -0.090432 -0.762595
v 0.724564 0.090432 0.762595
v 0.724564 -0.090432 0.762595
v -0.502985 0.090432 0.762595
v -0.502985 -0.090432 0.762595
v -0.502985 0.090432 -0.762595
v -0.502985 -0.090432 -0.762595
v 0.654798 0.085296 -0.719288
v 0.654798 -0.085296 -0.719288
v 0.654798 0.085296 0.719288
v 0.654798 -0.085296 0.719288
v -0.503041 0.085296 0.719288
v -0.503041 -0.085296 0.719288
v -0.503041 0.085296 -0.719288
v -0.503041 -0.085296 -0.719288
vt 0.080227 0.657233
vt 0.009361 0.657233
vt 0.009361 0.342767
vt 0.080227 0.342767
vt 0.080227 0.275816
vt 0.009361 0.275816
vt 0.009361 0.009434
vt 0.080227 0.009434
vt 0.901051 0.990566
vt 0.830185 0.990566
vt 0.830184 0.676101
vt 0.901051 0.676101
vt 0.604418 0.080855
vt 0.604418 0.009434
vt 0.652128 0.009434
vt 0.652128 0.080855
vt 0.387714 0.342767
vt 0.651469 0.342767
vt 0.651469 0.657233
vt 0.387714 0.657233
vt 0.717800 0.657233
vt 0.670191 0.657233
vt 0.670190 0.342767
vt 0.717800 0.342767
vt 0.981555 0.657233
vt 0.981555 0.342767
vt 0.340105 0.342767
vt 0.340105 0.657233
vt 0.340105 0.080855
vt 0.340105 0.009434
vt 0.080227 0.323899
vt 0.009361 0.323899
vt 0.321384 0.323899
vt 0.250517 0.323899
vt 0.250517 0.275816
vt 0.321384 0.275816
vt 0.340105 0.323899
vt 0.340105 0.252478
vt 0.604418 0.252478
vt 0.604418 0.323899
vt 0.934930 0.009434
vt 0.934930 0.323899
vt 0.919626 0.314970
vt 0.919626 0.018363
vt 0.652128 0.252478
vt 0.652128 0.323899
vt 0.990639 0.990566
vt 0.919773 0.990566
vt 0.919773 0.676101
vt 0.990639 0.676101
vt 0.671175 0.009434
vt 0.670849 0.018363
vt 0.250517 0.009434
vt 0.321384 0.009434
vt 0.273116 0.990566
vt 0.009361 0.990566
vt 0.024665 0.981637
vt 0.273441 0.981637
vt 0.321384 0.657233
vt 0.250517 0.657233
vt 0.250517 0.342767
vt 0.321384 0.342767
vt 0.383934 0.791120
vt 0.400795 0.791120
vt 0.400795 0.817495
vt 0.383934 0.817495
vt 0.381968 0.822256
vt 0.365107 0.822256
vt 0.365107 0.791120
vt 0.381968 0.791120
vt 0.419621 0.817495
vt 0.402760 0.817495
vt 0.402760 0.791120
vt 0.419621 0.791120
vt 0.671175 0.323899
vt 0.670849 0.314970
vt 0.990092 0.009434
vt 0.990092 0.181057
vt 0.981233 0.176184
vt 0.981233 0.014307
vt 0.009361 0.676101
vt 0.273116 0.676101
vt 0.273442 0.685030
vt 0.024665 0.685030
vt 0.953652 0.181057
vt 0.953652 0.009434
vt 0.962511 0.014307
vt 0.962511 0.176183
vn -1.0000 0.0000 0.0000
vn 0.0000 0.0000 -1.0000
vn 1.0000 0.0000 0.0000
vn 0.0000 0.0000 1.0000
vn 0.0000 -1.0000 0.0000
vn 0.0000 1.0000 0.0000
vn 0.0734 -0.9973 0.0000
vn 0.0000 -0.9930 -0.1178
vn 0.0000 0.9930 0.1178
vn 0.0000 -0.9930 0.1178
vn 1.0000 0.0000 0.0013
vn 0.0000 0.9930 -0.1178
vn 1.0000 0.0000 -0.0013
vn 0.0734 0.9973 0.0000
usemtl Material.003
s off
f 14/1/1 2/2/1 4/3/1 15/4/1
f 23/5/2 10/6/2 8/7/2 17/8/2
f 17/9/3 8/10/3 6/11/3 19/12/3
f 21/13/4 12/14/4 2/15/4 14/16/4
f 9/17/5 7/18/5 5/19/5 11/20/5
f 10/21/6 4/22/6 2/23/6 12/24/6
f 8/25/6 10/21/6 12/24/6 6/26/6
f 3/27/5 9/17/5 11/20/5 1/28/5
f 19/29/4 6/30/4 12/14/4 21/13/4
f 15/31/2 4/32/2 10/6/2 23/5/2
f 3/33/2 16/34/2 24/35/2 9/36/2
f 16/34/2 15/31/2 23/5/2 24/35/2
f 5/37/4 20/38/4 22/39/4 11/40/4
f 17/41/7 19/42/7 27/43/7 25/44/7
f 11/40/4 22/39/4 13/45/4 1/46/4
f 22/39/4 21/13/4 14/16/4 13/45/4
f 7/47/3 18/48/3 20/49/3 5/50/3
f 23/51/8 17/41/8 25/44/8 31/52/8
f 9/36/2 24/35/2 18/53/2 7/54/2
f 22/55/9 20/56/9 28/57/9 30/58/9
f 1/59/1 13/60/1 16/61/1 3/62/1
f 13/60/1 14/1/1 15/4/1 16/61/1
f 28/63/4 27/64/4 29/65/4 30/66/4
f 26/67/3 25/68/3 27/69/3 28/70/3
f 32/71/2 31/72/2 25/73/2 26/74/2
f 19/42/10 21/75/10 29/76/10 27/43/10
f 24/77/11 23/78/11 31/79/11 32/80/11
f 18/81/12 24/82/12 32/83/12 26/84/12
f 21/85/13 22/86/13 30/87/13 29/88/13
f 20/56/14 18/81/14 26/84/14 28/57/14
