# Blender v2.79 (sub 0) OBJ File: ''
# www.blender.org
mtllib Chaisse_bar.mtl
o Cylinder_Cylinder.001
v -0.000000 -0.213268 -0.930117
v 0.000000 -0.199094 -1.000000
v -0.000000 0.261982 -0.930117
v 0.000000 0.199094 -1.000000
v 0.546709 -0.213268 -0.752481
v 0.587785 -0.199094 -0.809017
v 0.546709 0.261982 -0.752481
v 0.587785 0.199094 -0.809017
v 0.884594 -0.213268 -0.287422
v 0.951057 -0.199094 -0.309017
v 0.884594 0.261982 -0.287422
v 0.951057 0.199094 -0.309017
v 0.884594 -0.213268 0.287422
v 0.951056 -0.199094 0.309017
v 0.884594 0.261982 0.287422
v 0.951056 0.199094 0.309017
v 0.546709 -0.213268 0.752481
v 0.587785 -0.199094 0.809017
v 0.546709 0.261982 0.752481
v 0.587785 0.199094 0.809017
v -0.000000 -0.213268 0.930117
v -0.000000 -0.199094 1.000000
v -0.000000 0.261982 0.930117
v -0.000000 0.199094 1.000000
v -0.546709 -0.213268 0.752481
v -0.587785 -0.199094 0.809017
v -0.546709 0.261982 0.752481
v -0.587785 0.199094 0.809017
v -0.884594 -0.213268 0.287422
v -0.951056 -0.199094 0.309017
v -0.884594 0.261982 0.287422
v -0.951056 0.199094 0.309017
v -0.884594 -0.213268 -0.287422
v -0.951056 -0.199094 -0.309017
v -0.884594 0.261982 -0.287422
v -0.951056 0.199094 -0.309017
v -0.546709 -0.213268 -0.752481
v -0.587785 -0.199094 -0.809017
v -0.546709 0.261982 -0.752481
v -0.587785 0.199094 -0.809017
v 0.000000 -0.363233 -0.715227
v 0.000000 -0.207449 -0.891683
v 0.420400 -0.363233 -0.578631
v 0.524118 -0.207449 -0.721387
v 0.680221 -0.363233 -0.221017
v 0.848041 -0.207449 -0.275545
v 0.680221 -0.363233 0.221017
v 0.848041 -0.207449 0.275545
v 0.420400 -0.363233 0.578631
v 0.524118 -0.207449 0.721387
v -0.000000 -0.363233 0.715227
v -0.000000 -0.207449 0.891683
v -0.420400 -0.363233 0.578631
v -0.524118 -0.207449 0.721387
v -0.680221 -0.363233 0.221017
v -0.848041 -0.207449 0.275545
v -0.680221 -0.363233 -0.221017
v -0.848041 -0.207449 -0.275545
v -0.420400 -0.363233 -0.578631
v -0.524118 -0.207449 -0.721387
v 0.000000 -0.363233 -0.273952
v 0.161025 -0.363233 -0.221632
v 0.260544 -0.363233 -0.084656
v 0.260544 -0.363233 0.084656
v 0.161025 -0.363233 0.221632
v -0.000000 -0.363233 0.273952
v -0.161025 -0.363233 0.221632
v -0.260544 -0.363233 0.084656
v -0.260544 -0.363233 -0.084656
v -0.161025 -0.363233 -0.221632
v 0.000000 -0.730940 -0.273952
v 0.161025 -0.730940 -0.221632
v 0.260544 -0.730940 -0.084656
v 0.260544 -0.730940 0.084656
v 0.161025 -0.730940 0.221632
v -0.000000 -0.730940 0.273952
v -0.161025 -0.730940 0.221632
v -0.260544 -0.730940 0.084656
v -0.260544 -0.730940 -0.084656
v -0.161025 -0.730940 -0.221632
v 0.000000 -0.730940 -0.133136
v 0.078256 -0.730940 -0.107710
v 0.126620 -0.730940 -0.041141
v 0.126620 -0.730940 0.041141
v 0.078256 -0.730940 0.107710
v -0.000000 -0.730940 0.133136
v -0.078256 -0.730940 0.107710
v -0.126620 -0.730940 0.041141
v -0.126620 -0.730940 -0.041141
v -0.078256 -0.730940 -0.107710
v -0.000000 -3.057627 -0.133136
v 0.078256 -3.057627 -0.107710
v 0.126620 -3.057627 -0.041141
v 0.126620 -3.057627 0.041141
v 0.078256 -3.057627 0.107710
v -0.000000 -3.057627 0.133136
v -0.078256 -3.057627 0.107710
v -0.126620 -3.057627 0.041141
v -0.126620 -3.057627 -0.041141
v -0.078256 -3.057627 -0.107710
v -0.000000 -3.129485 -0.533168
v 0.313388 -3.129485 -0.431342
v 0.507073 -3.129485 -0.164758
v 0.507073 -3.129485 0.164758
v 0.313388 -3.129485 0.431342
v -0.000000 -3.129485 0.533168
v -0.313389 -3.129485 0.431342
v -0.507073 -3.129485 0.164758
v -0.507073 -3.129485 -0.164758
v -0.313389 -3.129485 -0.431343
v 0.000000 -3.211959 -0.533168
v 0.313389 -3.211959 -0.431342
v 0.507073 -3.211959 -0.164758
v 0.507073 -3.211959 0.164758
v 0.313389 -3.211959 0.431342
v 0.000000 -3.211959 0.533168
v -0.313388 -3.211959 0.431342
v -0.507073 -3.211959 0.164758
v -0.507073 -3.211959 -0.164758
v -0.313388 -3.211959 -0.431343
vt 0.438128 0.747344
vt 0.438128 0.624692
vt 0.468399 0.627348
vt 0.468400 0.750000
vt 0.612929 0.750000
vt 0.612929 0.872652
vt 0.575511 0.872652
vt 0.575511 0.750000
vt 0.545240 0.875309
vt 0.545240 0.752656
vt 0.603777 0.605020
vt 0.603777 0.727673
vt 0.566360 0.727673
vt 0.566360 0.605020
vt 0.536088 0.730329
vt 0.536088 0.607676
vt 0.420929 0.739872
vt 0.420929 0.862525
vt 0.390658 0.859868
vt 0.390658 0.737216
vt 0.353240 0.859868
vt 0.353240 0.737216
vt 0.322969 0.862525
vt 0.322969 0.739872
vt 0.505817 0.750000
vt 0.505817 0.627348
vt 0.536088 0.624691
vt 0.536088 0.747344
vt 0.491684 0.750000
vt 0.524783 0.761742
vt 0.545240 0.792481
vt 0.545240 0.830477
vt 0.524783 0.861216
vt 0.491684 0.872958
vt 0.458585 0.861216
vt 0.438128 0.830477
vt 0.438128 0.792481
vt 0.458585 0.761741
vt 0.322969 0.691543
vt 0.322969 0.650693
vt 0.326993 0.652120
vt 0.326993 0.690116
vt 0.469707 0.607491
vt 0.504510 0.607491
vt 0.344962 0.617644
vt 0.347449 0.621381
vt 0.532665 0.605020
vt 0.380548 0.605020
vt 0.380548 0.609639
vt 0.611621 0.892509
vt 0.576819 0.892509
vt 0.416135 0.617644
vt 0.413648 0.621381
vt 0.548663 0.894980
vt 0.438128 0.650693
vt 0.434104 0.652120
vt 0.602470 0.747530
vt 0.567667 0.747530
vt 0.438128 0.691543
vt 0.434104 0.690116
vt 0.539511 0.750000
vt 0.416135 0.724592
vt 0.413648 0.720855
vt 0.417506 0.882196
vt 0.389350 0.879725
vt 0.380548 0.737216
vt 0.380548 0.732597
vt 0.354548 0.879725
vt 0.344962 0.724592
vt 0.347449 0.720855
vt 0.326392 0.882196
vt 0.441551 0.605020
vt 0.460653 0.201420
vt 0.478037 0.201945
vt 0.477608 0.206232
vt 0.460309 0.204859
vt 0.478037 0.190985
vt 0.460738 0.192358
vt 0.460309 0.188070
vt 0.477693 0.187546
vt 0.460309 0.182771
vt 0.477693 0.183295
vt 0.460738 0.178484
vt 0.478037 0.179856
vt 0.442581 0.193731
vt 0.459880 0.192358
vt 0.460309 0.196645
vt 0.442925 0.197170
vt 0.460309 0.201945
vt 0.442925 0.201420
vt 0.459880 0.206232
vt 0.442581 0.204859
vt 0.531872 0.168223
vt 0.533155 0.175327
vt 0.520187 0.175327
vt 0.521470 0.168223
vt 0.533155 0.195008
vt 0.533155 0.200307
vt 0.525533 0.204594
vt 0.513200 0.206232
vt 0.500866 0.204594
vt 0.493244 0.200307
vt 0.493244 0.195008
vt 0.500866 0.190720
vt 0.513200 0.189083
vt 0.525533 0.190720
vt 0.460309 0.193731
vt 0.477608 0.192358
vt 0.478037 0.196645
vt 0.460653 0.197170
vt 0.501142 0.184330
vt 0.501142 0.180079
vt 0.511018 0.181391
vt 0.511018 0.183019
vt 0.440645 0.189571
vt 0.437422 0.189624
vt 0.437422 0.173071
vt 0.440645 0.173017
vt 0.527041 0.187769
vt 0.517149 0.189083
vt 0.517149 0.184839
vt 0.520938 0.184336
vt 0.507256 0.187769
vt 0.513359 0.184336
vt 0.533155 0.184330
vt 0.523280 0.183019
vt 0.533155 0.180079
vt 0.523280 0.181391
vt 0.527041 0.176640
vt 0.520938 0.180073
vt 0.517149 0.175327
vt 0.517149 0.179570
vt 0.507256 0.176640
vt 0.513359 0.180073
vt 0.438303 0.172514
vt 0.434514 0.173017
vt 0.434514 0.171663
vt 0.436356 0.171418
vt 0.442581 0.175804
vt 0.445805 0.175750
vt 0.445805 0.192304
vt 0.442581 0.192358
vt 0.440645 0.206178
vt 0.437422 0.206232
vt 0.437422 0.189678
vt 0.440645 0.189624
vt 0.433438 0.189624
vt 0.433438 0.173071
vt 0.449789 0.175750
vt 0.449789 0.192304
vt 0.433438 0.206232
vt 0.433438 0.189678
vt 0.430215 0.189571
vt 0.430215 0.173017
vt 0.453012 0.175804
vt 0.453012 0.192358
vt 0.430215 0.206178
vt 0.430215 0.189624
vt 0.497158 0.172529
vt 0.501142 0.172529
vt 0.501142 0.189083
vt 0.497158 0.189083
vt 0.488175 0.206206
vt 0.486608 0.206232
vt 0.486608 0.101486
vt 0.488175 0.101460
vt 0.438303 0.168251
vt 0.440645 0.169568
vt 0.437494 0.169987
vt 0.436356 0.169347
vt 0.428383 0.169568
vt 0.430725 0.168251
vt 0.432673 0.169347
vt 0.431535 0.169987
vt 0.430725 0.172514
vt 0.432673 0.171418
vt 0.440645 0.171196
vt 0.437494 0.170778
vt 0.434514 0.167748
vt 0.434514 0.169102
vt 0.428383 0.171196
vt 0.431535 0.170778
vt 0.481539 0.206232
vt 0.479603 0.206232
vt 0.479603 0.101486
vt 0.481539 0.101486
vt 0.489741 0.101460
vt 0.491678 0.101460
vt 0.491678 0.206206
vt 0.489741 0.206206
vt 0.484672 0.206232
vt 0.484672 0.101486
vt 0.478037 0.206206
vt 0.478037 0.101460
vt 0.493244 0.101486
vt 0.493244 0.206232
vt 0.483106 0.206206
vt 0.483106 0.101460
vt 0.440645 0.101486
vt 0.442581 0.101486
vt 0.442581 0.206232
vt 0.440645 0.206232
vt 0.483106 0.206206
vt 0.483106 0.101460
vt 0.488175 0.101486
vt 0.488175 0.206232
vt 0.464263 0.172321
vt 0.463125 0.172961
vt 0.454172 0.171772
vt 0.458730 0.169208
vt 0.464263 0.174392
vt 0.466105 0.174637
vt 0.466105 0.178484
vt 0.458730 0.177504
vt 0.469084 0.173752
vt 0.469084 0.172961
vt 0.478037 0.171772
vt 0.478037 0.174941
vt 0.466105 0.172076
vt 0.466105 0.168229
vt 0.463125 0.173752
vt 0.454172 0.174941
vt 0.467946 0.174392
vt 0.473479 0.177504
vt 0.467946 0.172321
vt 0.473479 0.169208
vt 0.520187 0.169594
vt 0.520187 0.172763
vt 0.511102 0.172763
vt 0.511102 0.169594
vt 0.453012 0.170018
vt 0.453012 0.173187
vt 0.443927 0.173187
vt 0.443927 0.170018
vt 0.510845 0.169594
vt 0.510845 0.172763
vt 0.501760 0.172763
vt 0.501760 0.169594
vt 0.519931 0.175327
vt 0.510845 0.175327
vt 0.452756 0.175750
vt 0.443670 0.175750
vt 0.510589 0.175327
vt 0.501504 0.175327
vt 0.501142 0.172529
vt 0.493388 0.172529
vt 0.493388 0.168816
vt 0.501142 0.168816
vt 0.519931 0.167031
vt 0.510845 0.167031
vt 0.452756 0.167454
vt 0.443670 0.167454
vt 0.510589 0.167031
vt 0.501504 0.167031
vn -0.3090 0.0000 -0.9511
vn 1.0000 0.0000 0.0000
vn 0.8090 0.0000 0.5878
vn 0.3090 0.0000 0.9511
vn -0.3090 0.0000 0.9511
vn -0.8090 0.0000 0.5878
vn -1.0000 0.0000 0.0000
vn -0.8090 0.0000 -0.5878
vn 0.8090 0.0000 -0.5878
vn 0.0000 1.0000 0.0000
vn 0.3090 0.0000 -0.9511
vn 0.0645 -0.9780 -0.1984
vn 0.2124 0.7264 -0.6537
vn 0.1687 -0.9780 -0.1226
vn 0.5560 0.7264 -0.4040
vn 0.2086 -0.9780 0.0000
vn 0.6873 0.7264 0.0000
vn 0.1687 -0.9780 0.1226
vn 0.5560 0.7264 0.4040
vn 0.0645 -0.9780 0.1984
vn 0.2124 0.7264 0.6537
vn -0.0645 -0.9780 0.1984
vn -0.2124 0.7264 0.6537
vn -0.1687 -0.9780 0.1226
vn -0.5560 0.7264 0.4040
vn -0.2086 -0.9780 0.0000
vn -0.6873 0.7264 0.0000
vn -0.1687 -0.9780 -0.1226
vn -0.5560 0.7264 -0.4040
vn -0.0645 -0.9780 -0.1984
vn -0.2124 0.7264 -0.6537
vn 0.0000 -1.0000 0.0000
vn 0.2102 -0.7329 -0.6470
vn 0.5504 -0.7329 -0.3999
vn 0.6803 -0.7329 0.0000
vn 0.5504 -0.7329 0.3999
vn 0.2102 -0.7329 0.6470
vn -0.2102 -0.7329 0.6470
vn -0.5504 -0.7329 0.3999
vn -0.6803 -0.7329 0.0000
vn -0.5504 -0.7329 -0.3999
vn -0.2102 -0.7329 -0.6470
vn -0.1501 0.9826 -0.1091
vn 0.1501 0.9826 -0.1091
vn 0.0574 0.9826 0.1765
vn -0.1856 0.9826 0.0000
vn 0.0574 0.9826 -0.1765
vn 0.1501 0.9826 0.1091
vn -0.1501 0.9826 0.1091
vn -0.0574 0.9826 -0.1765
vn 0.1856 0.9826 0.0000
vn -0.0574 0.9826 0.1765
usemtl Material.001
s off
f 38/1/1 40/2/1 4/3/1 2/4/1
f 10/5/2 12/6/2 16/7/2 14/8/2
f 14/8/3 16/7/3 20/9/3 18/10/3
f 18/11/4 20/12/4 24/13/4 22/14/4
f 22/14/5 24/13/5 28/15/5 26/16/5
f 26/17/6 28/18/6 32/19/6 30/20/6
f 30/20/7 32/19/7 36/21/7 34/22/7
f 34/22/8 36/21/8 40/23/8 38/24/8
f 6/25/9 8/26/9 12/27/9 10/28/9
f 7/29/10 3/30/10 39/31/10 35/32/10 31/33/10 27/34/10 23/35/10 19/36/10 15/37/10 11/38/10
f 2/4/11 4/3/11 8/26/11 6/25/11
f 2/39/12 6/40/12 5/41/12 1/42/12
f 8/26/13 4/3/13 3/43/13 7/44/13
f 6/40/14 10/45/14 9/46/14 5/41/14
f 12/27/15 8/26/15 7/44/15 11/47/15
f 10/45/16 14/48/16 13/49/16 9/46/16
f 16/7/17 12/6/17 11/50/17 15/51/17
f 14/48/18 18/52/18 17/53/18 13/49/18
f 20/9/19 16/7/19 15/51/19 19/54/19
f 18/52/20 22/55/20 21/56/20 17/53/20
f 24/13/21 20/12/21 19/57/21 23/58/21
f 22/55/22 26/59/22 25/60/22 21/56/22
f 28/15/23 24/13/23 23/58/23 27/61/23
f 26/59/24 30/62/24 29/63/24 25/60/24
f 32/19/25 28/18/25 27/64/25 31/65/25
f 30/62/26 34/66/26 33/67/26 29/63/26
f 36/21/27 32/19/27 31/65/27 35/68/27
f 34/66/28 38/69/28 37/70/28 33/67/28
f 40/23/29 36/21/29 35/68/29 39/71/29
f 38/69/30 2/39/30 1/42/30 37/70/30
f 4/3/31 40/2/31 39/72/31 3/43/31
f 1/42/32 5/41/32 9/46/32 13/49/32 17/53/32 21/56/32 25/60/32 29/63/32 33/67/32 37/70/32
f 41/73/33 42/74/33 44/75/33 43/76/33
f 43/77/34 44/78/34 46/79/34 45/80/34
f 45/80/35 46/79/35 48/81/35 47/82/35
f 47/82/36 48/81/36 50/83/36 49/84/36
f 49/85/37 50/86/37 52/87/37 51/88/37
f 51/88/38 52/87/38 54/89/38 53/90/38
f 53/90/39 54/89/39 56/91/39 55/92/39
f 55/93/40 56/94/40 58/95/40 57/96/40
f 44/97/10 42/98/10 60/99/10 58/100/10 56/101/10 54/102/10 52/103/10 50/104/10 48/105/10 46/106/10
f 57/107/41 58/108/41 60/109/41 59/110/41
f 59/110/42 60/109/42 42/74/42 41/73/42
f 47/111/32 49/112/32 65/113/32 64/114/32
f 65/115/4 66/116/4 76/117/4 75/118/4
f 41/119/32 43/120/32 62/121/32 61/122/32
f 45/123/32 47/111/32 64/114/32 63/124/32
f 43/120/32 45/123/32 63/124/32 62/121/32
f 59/125/32 41/119/32 61/122/32 70/126/32
f 57/127/32 59/125/32 70/126/32 69/128/32
f 55/129/32 57/127/32 69/128/32 68/130/32
f 53/131/32 55/129/32 68/130/32 67/132/32
f 51/133/32 53/131/32 67/132/32 66/134/32
f 49/112/32 51/133/32 66/134/32 65/113/32
f 72/135/32 73/136/32 83/137/32 82/138/32
f 62/139/9 63/140/9 73/141/9 72/142/9
f 69/143/8 70/144/8 80/145/8 79/146/8
f 66/116/5 67/147/5 77/148/5 76/117/5
f 63/140/2 64/149/2 74/150/2 73/141/2
f 70/144/1 61/151/1 71/152/1 80/145/1
f 67/147/6 68/153/6 78/154/6 77/148/6
f 64/149/3 65/155/3 75/156/3 74/150/3
f 61/151/11 62/157/11 72/158/11 71/152/11
f 68/159/7 69/160/7 79/161/7 78/162/7
f 89/163/8 90/164/8 100/165/8 99/166/8
f 79/167/32 80/168/32 90/169/32 89/170/32
f 76/171/32 77/172/32 87/173/32 86/174/32
f 73/136/32 74/175/32 84/176/32 83/137/32
f 80/168/32 71/177/32 81/178/32 90/169/32
f 77/172/32 78/179/32 88/180/32 87/173/32
f 74/175/32 75/181/32 85/182/32 84/176/32
f 71/177/32 72/135/32 82/138/32 81/178/32
f 78/179/32 79/167/32 89/170/32 88/180/32
f 75/181/32 76/171/32 86/174/32 85/182/32
f 86/183/5 87/184/5 97/185/5 96/186/5
f 83/187/2 84/188/2 94/189/2 93/190/2
f 90/164/1 81/191/1 91/192/1 100/165/1
f 87/184/6 88/193/6 98/194/6 97/185/6
f 84/188/3 85/195/3 95/196/3 94/189/3
f 81/191/11 82/197/11 92/198/11 91/192/11
f 88/199/7 89/200/7 99/201/7 98/202/7
f 85/203/4 86/183/4 96/186/4 95/204/4
f 82/205/9 83/187/9 93/190/9 92/206/9
f 99/207/43 100/208/43 110/209/43 109/210/43
f 92/211/44 93/212/44 103/213/44 102/214/44
f 95/215/45 96/216/45 106/217/45 105/218/45
f 98/219/46 99/207/46 109/210/46 108/220/46
f 91/221/47 92/211/47 102/214/47 101/222/47
f 94/223/48 95/215/48 105/218/48 104/224/48
f 97/225/49 98/219/49 108/220/49 107/226/49
f 100/208/50 91/221/50 101/222/50 110/209/50
f 93/212/51 94/223/51 104/224/51 103/213/51
f 96/216/52 97/225/52 107/226/52 106/217/52
f 106/227/5 107/228/5 117/229/5 116/230/5
f 103/231/2 104/232/2 114/233/2 113/234/2
f 110/235/1 101/236/1 111/237/1 120/238/1
f 107/228/6 108/239/6 118/240/6 117/229/6
f 104/232/3 105/241/3 115/242/3 114/233/3
f 101/236/11 102/243/11 112/244/11 111/237/11
f 108/245/7 109/246/7 119/247/7 118/248/7
f 105/249/4 106/227/4 116/230/4 115/250/4
f 102/251/9 103/231/9 113/234/9 112/252/9
f 109/253/8 110/235/8 120/238/8 119/254/8
